<svg width="800" height="800" stroke="#9F9F9F" viewBox="0 0 32.951 32.951" class="w-8 h-8 flex text-red-500 items-center absolute top-1/2  transform -translate-y-1/2 m-0 pl-2  peer-[&:not(:placeholder-shown):not(:focus):invalid]:[&_*]:fill-red-500"><path d="M16.476 32.95a16.475 16.475 0 1 1 16.475-16.475A16.494 16.494 0 0 1 16.476 32.95Zm0-30.95a14.475 14.475 0 1 0 14.475 14.475A14.492 14.492 0 0 0 16.476 1.999Z"/><path d="M16.476 27.834a8.766 8.766 0 0 1-8.756-8.755 1 1 0 0 1 2 0 6.756 6.756 0 0 0 13.511 0 1 1 0 0 1 2 0 8.766 8.766 0 0 1-8.755 8.755ZM8.799 16.017a1 1 0 0 1-1-1v-4.862a1 1 0 0 1 2 0v4.862a1 1 0 0 1-1 1ZM24.415 16.017a1 1 0 0 1-1-1v-4.862a1 1 0 0 1 2 0v4.862a1 1 0 0 1-1 1Z"/></svg>