<svg width="800" height="800" fill="#9F9F9F" viewBox="0 0 72 72"><path d="M24.014 70.462a9.718 9.718 0 0 1-6.917-2.859L2.175 53.877C.267 51.971-.751 49.513-.751 46.898s1.018-5.072 2.866-6.92a9.723 9.723 0 0 1 6.921-2.866c2.591 0 5.029 1 6.872 2.818l8.102 7.109L55.861 4.618c.057-.075.119-.146.186-.213 1.849-1.85 4.307-2.867 6.921-2.867s5.072 1.018 6.921 2.867c3.784 3.784 3.815 9.923.093 13.747L31.697 67.416a2.242 2.242 0 0 1-.165.188c-1.914 1.912-4.498 2.926-7.214 2.854-.102.002-.202.004-.304.004zM9.037 41.112a5.753 5.753 0 0 0-4.093 1.695C3.851 43.9 3.25 45.353 3.25 46.898s.602 3 1.694 4.093l14.922 13.726c1.148 1.146 2.6 1.914 4.148 1.914l.227.164h.151l.221-.164c1.51 0 2.929-.654 4.008-1.69l38.275-49.294c.051-.065.105-.148.165-.207 2.256-2.258 2.256-5.939 0-8.195a5.754 5.754 0 0 0-4.093-1.701 5.743 5.743 0 0 0-3.999 1.602L25.914 51.169a2 2 0 0 1-2.919.301l-9.771-8.573a1.967 1.967 0 0 1-.095-.089 5.746 5.746 0 0 0-4.092-1.696z"/></svg>