<?xml version="1.0" encoding="UTF-8"?>
<svg fill="none" viewBox="0 0 25 25" xmlns="http://www.w3.org/2000/svg">
<g clip-path="url(#a)">
<path d="m20.833 15.625c0 4.4318-2.7271 6.3765-4.8345 7.0323-0.4494 0.1398-0.7448-0.3841-0.476-0.7704 0.9171-1.3179 1.9772-3.3287 1.9772-5.2202 0-2.0319-1.7126-4.4308-3.0499-5.9103-0.3057-0.3383-0.8389-0.1145-0.8556 0.3412-0.0553 1.5096-0.2936 3.5293-1.3207 5.1122-0.1654 0.2548-0.5163 0.2758-0.7047 0.0376-0.321-0.4059-0.6419-0.9073-0.9628-1.3034-0.173-0.2134-0.4854-0.2163-0.68483-0.0275-0.77746 0.7361-1.8659 1.8841-1.8659 3.3127 0 0.9686 0.37528 1.9841 0.79868 2.8011 0.23293 0.4495-0.18125 0.9905-0.62952 0.7553-1.8569-0.9745-4.058-2.9485-4.058-6.1606 0-3.2775 4.4899-7.8179 6.2042-12.107 0.2705-0.67687 1.1042-0.99493 1.684-0.55322 3.5117 2.6751 8.7784 7.8461 8.7784 12.661z" fill="#fff"/>
</g>
<defs>
<clipPath id="a">
<rect width="25" height="25" fill="#fff"/>
</clipPath>
</defs>
</svg>
