<?xml version="1.0" standalone="no"?>
<!DOCTYPE svg PUBLIC "-//W3C//DTD SVG 20010904//EN"
 "http://www.w3.org/TR/2001/REC-SVG-20010904/DTD/svg10.dtd">
<svg version="1.0" xmlns="http://www.w3.org/2000/svg"
 viewBox="0 0 881.000000 881.000000"
 preserveAspectRatio="xMidYMid meet">

<g transform="translate(0.000000,881.000000) scale(0.100000,-0.100000)"
fill="#000000" stroke="none">
<path d="M4328 7069 c-9 -5 -50 -49 -91 -97 -41 -48 -92 -105 -113 -127 -54
-57 -184 -214 -184 -223 0 -4 30 25 68 64 37 39 58 59 47 45 -11 -14 -87 -96
-170 -181 -188 -194 -423 -439 -529 -550 -260 -273 -272 -287 -112 -130 92 91
242 244 333 340 90 96 192 200 226 230 l62 55 -65 -70 c-344 -367 -1064 -1101
-1095 -1116 -11 -6 12 21 50 58 78 78 130 135 101 113 -21 -16 -227 -225 -236
-239 -3 -5 -21 -18 -40 -28 -31 -17 -35 -24 -32 -54 19 -217 162 -355 347
-336 72 7 130 35 192 91 44 40 65 74 142 226 83 165 227 427 289 524 14 23 67
113 117 201 51 88 110 189 133 225 23 36 64 107 92 159 29 51 78 132 109 180
32 47 64 97 71 111 7 14 69 111 138 215 146 220 205 345 150 314z"/>
<path d="M4470 7068 c0 -29 70 -157 127 -233 33 -44 81 -114 107 -155 25 -41
59 -93 75 -115 16 -22 80 -121 142 -220 62 -99 145 -232 185 -295 39 -63 113
-187 164 -275 51 -88 116 -198 145 -245 61 -99 206 -364 254 -464 41 -85 139
-187 207 -218 108 -47 231 -15 329 87 55 58 86 125 101 222 6 40 5 42 -37 69
-98 62 -932 925 -1449 1499 -36 40 -115 128 -177 196 -109 121 -173 175 -173
147z"/>
<path d="M4396 6814 c-3 -10 -15 -100 -25 -199 -21 -184 -67 -513 -101 -710
-10 -60 -21 -135 -25 -165 -4 -30 -18 -107 -31 -170 -41 -190 -76 -391 -81
-460 -12 -170 117 -303 292 -304 118 -1 211 58 266 166 38 74 36 138 -16 418
-25 140 -51 275 -56 300 -51 225 -124 632 -149 820 -20 154 -42 275 -55 299
-12 23 -13 23 -19 5z m-89 -816 c-3 -8 -6 -5 -6 6 -1 11 2 17 5 13 3 -3 4 -12
1 -19z m-100 -560 c-3 -8 -6 -5 -6 6 -1 11 2 17 5 13 3 -3 4 -12 1 -19z m-17
-125 c-7 -54 -16 -105 -22 -113 -7 -11 -8 -9 -4 10 3 14 10 67 17 118 6 51 14
91 16 88 3 -2 -1 -48 -7 -103z"/>
<path d="M4272 6733 c-27 -44 -89 -155 -137 -248 -48 -94 -108 -208 -132 -254
-25 -46 -40 -80 -33 -76 15 9 -75 -163 -103 -197 -17 -20 4 21 65 132 14 24
15 29 3 15 -17 -21 -187 -318 -225 -395 -13 -25 -62 -110 -110 -190 -48 -80
-108 -185 -134 -235 -27 -49 -58 -101 -70 -113 -17 -19 -21 -35 -19 -84 4
-153 128 -272 283 -273 110 0 218 71 278 182 28 53 67 216 97 408 6 42 137
715 206 1063 22 112 52 233 65 269 14 36 23 67 21 70 -3 2 -27 -31 -55 -74z
m-512 -973 c-11 -22 -23 -40 -25 -40 -3 0 4 18 15 40 11 22 23 40 25 40 3 0
-4 -18 -15 -40z m-65 -120 c-9 -16 -18 -30 -21 -30 -2 0 2 14 11 30 9 17 18
30 21 30 2 0 -2 -13 -11 -30z m-50 -87 c-15 -27 -32 -52 -38 -58 -6 -5 2 13
18 40 15 28 30 53 32 58 2 4 7 7 10 7 2 0 -7 -21 -22 -47z m-65 -113 c-11 -22
-23 -40 -25 -40 -3 0 4 18 15 40 11 22 23 40 25 40 3 0 -4 -18 -15 -40z m-70
-127 c-23 -43 -51 -87 -63 -98 l-20 -20 17 29 c10 15 32 53 48 85 32 59 47 81
55 81 3 0 -14 -35 -37 -77z"/>
<path d="M4505 6783 c27 -67 48 -142 70 -247 14 -66 35 -155 46 -196 11 -41
31 -129 45 -195 13 -66 40 -190 59 -275 19 -85 44 -200 54 -255 11 -55 29
-145 40 -200 11 -55 25 -141 31 -191 27 -247 143 -388 334 -410 106 -12 229
66 281 179 45 95 43 100 -129 386 -84 141 -186 315 -226 386 -40 72 -81 141
-90 155 -28 41 -281 486 -345 605 -79 150 -202 336 -170 258z"/>
<path d="M2965 6529 c-619 -7 -620 -8 -787 -88 -155 -75 -271 -185 -352 -333
-129 -236 -123 -546 14 -766 73 -116 261 -384 669 -952 298 -414 625 -873 760
-1065 58 -82 168 -235 246 -340 78 -104 177 -239 221 -300 293 -401 305 -415
426 -488 70 -42 193 -63 325 -54 189 11 311 89 468 297 27 36 52 67 55 70 3 3
17 23 30 45 26 44 94 139 179 254 30 41 94 131 141 200 122 178 242 350 320
461 273 386 439 634 501 749 13 25 29 46 36 48 7 3 22 -10 33 -29 31 -49 20
-158 -31 -312 -21 -65 -39 -123 -39 -130 0 -6 36 -72 81 -146 44 -74 105 -181
136 -237 63 -114 88 -134 140 -111 79 35 431 223 451 241 12 11 22 29 22 39 0
28 -74 169 -150 288 -37 58 -77 124 -89 148 -13 25 -38 53 -64 69 -23 15 -85
54 -138 88 -124 77 -259 221 -259 274 0 5 25 22 56 37 43 21 65 40 90 78 18
28 83 121 144 206 296 417 386 546 400 569 69 115 103 279 98 468 -2 62 -6
113 -10 113 -3 0 -11 23 -17 51 -6 29 -35 90 -63 138 -129 214 -339 361 -577
402 -94 16 -168 18 -646 19 -504 0 -600 -3 -578 -19 13 -9 205 -222 233 -258
l25 -32 445 -4 c416 -4 450 -5 523 -25 43 -12 102 -34 130 -49 114 -61 203
-194 227 -336 22 -126 -2 -286 -50 -340 -41 -47 -145 -195 -207 -296 -32 -52
-65 -101 -74 -110 -9 -9 -34 -43 -54 -76 -21 -33 -70 -103 -108 -155 -39 -52
-101 -143 -138 -201 -37 -59 -129 -192 -205 -296 -77 -105 -164 -226 -195
-269 -30 -44 -115 -162 -189 -264 -73 -102 -181 -257 -239 -345 -58 -88 -144
-214 -191 -280 -47 -66 -104 -147 -128 -180 -23 -33 -76 -109 -117 -170 -165
-244 -210 -294 -295 -334 -50 -23 -67 -26 -175 -26 -191 0 -190 -1 -477 385
-68 91 -177 242 -243 335 -65 94 -159 226 -208 293 -49 68 -157 221 -241 340
-218 311 -387 546 -570 794 -89 120 -183 252 -211 293 -133 202 -252 380 -319
475 -96 139 -118 197 -124 327 -3 84 0 114 16 170 40 130 119 217 258 284 113
55 170 60 644 58 l405 -1 55 68 c30 38 92 108 137 155 46 47 80 89 76 92 -3 4
-29 6 -57 5 -28 -1 -298 -5 -601 -9z m3592 -2534 c32 -21 65 -54 81 -81 15
-24 57 -91 95 -149 37 -57 67 -111 67 -120 0 -9 -39 -35 -97 -64 -54 -28 -112
-60 -130 -71 l-32 -21 -24 43 c-13 24 -54 100 -90 169 l-66 126 19 86 c27 121
33 131 82 124 22 -3 64 -22 95 -42z"/>
<path d="M6450 3950 c-24 -24 -25 -48 -4 -78 40 -57 128 15 89 74 -19 30 -58
31 -85 4z"/>
<path d="M2889 5513 c-13 -16 -12 -17 4 -4 9 7 17 15 17 17 0 8 -8 3 -21 -13z"/>
<path d="M5104 4583 c-40 -5 -58 -24 -81 -88 l-19 -50 -650 -5 c-712 -5 -684
-3 -684 -64 0 -18 32 -124 71 -236 39 -113 91 -268 117 -345 28 -86 54 -148
68 -162 l23 -23 482 4 c400 4 484 7 496 19 8 8 25 50 38 93 13 44 44 139 69
211 25 73 55 168 66 210 11 43 33 116 49 163 l28 85 49 7 c27 3 89 7 137 7 84
1 90 3 118 30 17 18 29 40 29 56 0 33 -24 81 -45 89 -18 6 -308 6 -361 -1z
m-727 -493 c1 -96 0 -199 -3 -227 l-5 -53 -54 0 -53 0 -6 138 c-3 75 -8 176
-11 224 l-6 87 28 4 c15 2 46 4 68 3 l40 -1 2 -175z m-273 143 c3 -16 10 -86
16 -158 10 -115 16 -158 35 -242 5 -22 2 -23 -52 -23 l-58 0 -63 208 c-35 114
-66 215 -68 225 -5 15 4 17 90 17 l94 0 6 -27z m506 -55 c0 -46 -3 -147 -7
-225 l-6 -143 -44 0 -43 0 0 225 0 225 50 0 50 0 0 -82z m330 74 c0 -4 -24
-81 -54 -170 -30 -89 -60 -187 -67 -217 l-12 -55 -64 0 -65 0 6 28 c13 62 36
285 36 344 0 36 3 68 7 71 9 10 213 9 213 -1z"/>
<path d="M4044 3416 c-18 -8 -50 -31 -73 -51 -102 -93 -68 -250 73 -332 31
-18 115 -15 162 6 80 36 143 141 131 217 -8 45 -51 107 -99 140 -48 34 -143
43 -194 20z m118 -163 c21 -19 24 -56 6 -70 -26 -20 -66 -24 -82 -7 -50 49 24
124 76 77z"/>
<path d="M4650 3413 c-41 -27 -91 -76 -106 -105 -18 -35 -18 -131 1 -167 20
-40 101 -108 137 -116 80 -18 192 34 236 110 19 33 22 51 20 107 -3 57 -8 72
-34 105 -47 58 -98 83 -169 83 -40 0 -69 -6 -85 -17z m112 -160 c36 -32 17
-83 -32 -83 -48 0 -67 45 -33 82 20 22 41 23 65 1z"/>
</g>
</svg>
