<?xml version="1.0" encoding="UTF-8"?>
<svg viewBox="0 0 25 25" xmlns="http://www.w3.org/2000/svg">
<path d="m0.64331 9.9151s-1.95e-4 -6.4e-4 -3.41e-4 -0.00127l-0.032813-0.08609 0.033154 0.08736z" fill="#fff"/>
<path d="m0.84175 7.9793 0.5458-0.35644c2.9e-4 0 5.9e-4 -3.5e-4 9.3e-4 -6.9e-4l-0.54673 0.35713z" fill="#fff"/>
<path d="m23.455 12.718c-0.0268-0.0701-0.0402-0.1441-0.0402-0.2181 0-0.0742 0.0134-0.1485 0.0403-0.2193l0.8237-2.1619 0.0774-0.20367c0.085-0.22285 0.1261-0.45527 0.1261-0.68389 3e-4 -0.63408-0.3153-1.2459-0.8708-1.609l-2.1211-1.385c-0.1254-0.08223-0.2171-0.20879-0.2563-0.35386l-0.6615-2.4437c-0.2283-0.84131-0.9903-1.4197-1.8544-1.4197-0.0327 0-0.0652 6.4e-4 -0.0979 0.00254l-2.5187 0.12593v-2.9e-4l-0.0378 9.7e-4c-0.1414 0-0.2777-0.04785-0.3874-0.13613l-1.844-1.4854-0.1269-0.102c-0.351-0.28345-0.7798-0.42593-1.2057-0.42563-0.4258-6.3477e-4 -0.8547 0.14219-1.2059 0.42563l5e-4 -3.42e-4 -1.7678 1.4238-0.20308 0.16358c-0.11016 0.08862-0.24692 0.13647-0.3877 0.13647l-0.03286-7.3e-4 -2.5173-0.12559-0.00161-3.4e-4c-0.03906-0.00224-0.07334-0.00254-0.10264-0.00254-0.86431 0-1.6261 0.57832-1.8544 1.4197l-0.66158 2.4437c-0.03935 0.14566-0.13149 0.27256-0.25771 0.35513l-0.18223 0.11894-1.9382 1.2654c-0.55523 0.36348-0.87051 0.97491-0.87022 1.6087 0 0.22827 0.040967 0.45971 0.12564 0.68227l0.90161 2.3669 1.5e-4 3e-4c0.02675 0.0701 0.04033 0.1447 0.04033 0.219s-0.01338 0.1486-0.04033 0.2187l-0.90142 2.3663 1.46e-4 -3e-4c-0.084961 0.2228-0.12612 0.4549-0.12612 0.6835-2.93e-4 0.6341 0.31499 1.2462 0.871 1.6097l2.1201 1.3843c0.12612 0.0822 0.21792 0.2085 0.25727 0.3545l0.66158 2.4434c0.22807 0.8413 0.99023 1.4197 1.8544 1.42 0.0293-3e-4 0.06123-7e-4 0.09531-0.0026l-0.07236 0.0038 2.6093-0.1303h-0.00127l0.02441-4e-4c0.13994 0 0.27627 0.0479 0.38623 0.1365l1.9712 1.588h2e-4c0.3508 0.2828 0.7795 0.4253 1.2054 0.425 0.4258 3e-4 0.8546-0.1422 1.2056-0.4253l2.1407-1.7245-0.1693 0.1365c0.11-0.0887 0.246-0.1362 0.3861-0.1362l0.0293 7e-4 2.5483 0.1272-0.0128-6e-4c0.0277 0.0012 0.0579 0.0019 0.0906 0.0022 0.8638-3e-4 1.6262-0.5783 1.8544-1.42l0.6615-2.4434c0.0393-0.146 0.131-0.2719 0.2569-0.3542l2.1216-1.3853c0.5549-0.3634 0.87-0.9749 0.8697-1.6087 0-0.2286-0.0411-0.461-0.1263-0.6842l-0.9011-2.3662zm-1.2199-0.9022c-0.084 0.2203-0.1261 0.4524-0.1261 0.6841 0 0.2322 0.0421 0.4643 0.1261 0.6846l0.9008 2.3652 1e-4 3e-4c0.0276 0.0724 0.0405 0.1457 0.0405 0.2184-3e-4 0.2035-0.1007 0.3999-0.2791 0.5162l-2.1196 1.384h1e-4c-0.3948 0.2576-0.6811 0.6517-0.8044 1.1069l-0.6615 2.4434c-0.0725 0.2697-0.318 0.4553-0.5937 0.4549l-0.0367-1e-3 -0.0092-2e-4 -2.5134-0.1253h0.0017c-0.0309-0.0019-0.0636-0.0026-0.0978-0.0029-0.4379 0-0.8635 0.1498-1.2058 0.4256l-0.1694 0.1368-1.8016 1.4512c-0.1135 0.0915-0.2484 0.1361-0.3863 0.1361-0.1376 0-0.2727-0.0446-0.3863-0.1361l-1.9711-1.588c-0.34211-0.2754-0.76755-0.4253-1.2056-0.4253-0.02935 0-0.06362 4e-4 -0.10283 0.0026v3e-4l-2.5215 0.1259 7.8e-4 -3e-4 -0.03183 7e-4c-0.27549 3e-4 -0.52129-0.1853-0.5938-0.455l-0.66152-2.4433c-0.12325-0.4553-0.40952-0.8493-0.8044-1.107l-1.5728-1.0269-0.54658-0.357c-0.17822-0.1161-0.27896-0.3128-0.2793-0.5165 1.5e-4 -0.0731 0.01294-0.1464 0.04033-0.2181l0.90142-2.3659-1.5e-4 3e-4c0.08399-0.2206 0.12608-0.4524 0.12608-0.6845s-0.0419-0.4642-0.12608-0.6845l-0.86801-2.278-0.03316-0.08672c-0.02759-0.0727-0.04033-0.14634-0.04053-0.21934 3.5e-4 -0.20371 0.10093-0.3998 0.27911-0.51582l2.1198-1.3839 3.4e-4 -3.4e-4c0.39463-0.25821 0.68067-0.65196 0.80391-1.1069l0.66152-2.4437c0.07236-0.26938 0.31851-0.45527 0.5938-0.45493l0.02456 2.9e-4 2.5347 0.12657 0.00273 3.4e-4c0.03076 0.00127 0.06172 0.00195 0.09248 0.00224 0.43789 0 0.86367-0.14956 1.2061-0.425l1.972-1.5883c0.1133-0.0915 0.2481-0.13584 0.3859-0.13613 0.1378 0 0.2727 0.04463 0.3861 0.13613l-0.127-0.10234 2.0986 1.6903c0.3428 0.27608 0.7691 0.425 1.2064 0.425 0.0325 0 0.0616-9.7e-4 0.0875-0.00161h-0.0069l2.5427-0.1269h0.0018l0.0293-6.4e-4c0.2754-3.4e-4 0.5214 0.18555 0.5938 0.45493l0.6615 2.4437c0.1232 0.45494 0.4092 0.84869 0.8039 1.1069l2.3934 1.5628-0.2735-0.17851c0.1784 0.11606 0.2788 0.3121 0.2791 0.51552 0 0.07305-0.0129 0.14639-0.0406 0.21934l-1.0172 2.67 0.1164-0.3047z" fill="#fff"/>
<path d="m9.5777 11.05-0.67304 0.1323c-0.03541 0.0073-0.05484 0.0354-0.04781 0.0714l0.50069 2.5476-0.02915 0.0061-1.9301-2.2668c-0.03189-0.0369-0.0708-0.0481-0.11255-0.0398l-0.71465 0.1406c-0.0354 0.0071-0.05483 0.0351-0.04717 0.0711l0.77232 3.9281c0.00683 0.036 0.0354 0.0555 0.0708 0.0484l0.673-0.1323c0.0354-0.0073 0.05483-0.0357 0.04799-0.0717l-0.50009-2.5416 0.02978-0.0057 1.9342 2.2597c0.03188 0.037 0.06533 0.0488 0.11318 0.0399l0.70847-0.1397c0.0353-7e-3 0.0548-0.0354 0.0471-0.0714l-0.77212-3.9284c-0.00698-0.036-0.0355-0.0548-0.0709-0.0478z" fill="#fff"/>
<path d="m13.714 13.655-1.7447 0.3431c-0.0236 0.0051-0.0381-0.0044-0.0423-0.0284l-0.1652-0.8394c-5e-3 -0.0236 0.0048-0.0376 0.0283-0.0427l1.453-0.2856c0.0354-0.0071 0.0548-0.0351 0.048-0.0708l-0.1243-0.6309c-7e-3 -0.0354-0.0356-0.0549-0.071-0.0482l-1.4528 0.286c-0.0236 0.0044-0.0383-0.0054-0.043-0.029l-0.1578-0.8034c-0.0048-0.0239 0.0049-0.0383 0.0285-0.0427l1.7447-0.3431c0.0354-7e-3 0.0548-0.0354 0.0471-0.0711l-0.125-0.6366c-7e-3 -0.0361-0.0354-0.0552-0.0709-0.0482l-2.5953 0.5105c-0.0362 7e-3 -0.055 0.0354-0.048 0.0714l0.7724 3.9284c0.0076 0.0357 0.0353 0.0548 0.0715 0.0478l2.5953-0.5104c0.0355-7e-3 0.055-0.0354 0.0474-0.0711l-0.1252-0.637c-0.0068-0.0358-0.0353-0.0555-0.0707-0.0486z" fill="#fff"/>
<path d="m18.419 9.3112-0.762 0.14981c-0.0416 0.00801-0.0618 0.03095-0.0597 0.07397l-0.0597 2.6509-0.0126 0.0023-1.2132-2.4004c-0.0194-0.03414-0.048-0.05293-0.0834-0.0459l-0.5181 0.10171c-0.0409 0.0083-0.0604 0.03632-0.0653 0.07524l-0.1909 2.6768-0.0119 0.0025-1.0835-2.4268c-0.0124-0.035-0.0409-0.0535-0.0825-0.0452l-0.7682 0.1505c-0.0416 0.0083-0.0486 0.0344-0.0354 0.0692l1.8196 3.7221c0.0195 0.0335 0.0479 0.053 0.0834 0.0459l0.5952-0.1173c0.0416-8e-3 0.0611-0.0367 0.0659-0.0746l0.2132-2.657 0.0119-0.0022 1.1973 2.3793c0.0188 0.0334 0.0473 0.0529 0.0889 0.0446l0.5953-0.1173c0.0416-0.0077 0.0666-0.0376 0.066-0.075l0.2687-4.133c-0.0014-0.0373-0.0174-0.05835-0.059-0.05005z" fill="#fff"/>
</svg>
