<?xml version="1.0" encoding="UTF-8"?>
<svg fill="none" viewBox="0 0 20 20" xmlns="http://www.w3.org/2000/svg">
<path d="m4.7059 2.3529c-1.2995 0-2.3529 1.0534-2.3529 2.3529 0 1.2995 1.0534 2.3529 2.3529 2.3529 1.2995 0 2.3529-1.0534 2.3529-2.3529 0-1.2995-1.0534-2.3529-2.3529-2.3529zm-4.7059 2.3529c0-2.599 2.1069-4.7059 4.7059-4.7059 2.5989 0 4.7059 2.1069 4.7059 4.7059 0 2.5989-2.107 4.7059-4.7059 4.7059-2.599 0-4.7059-2.107-4.7059-4.7059zm15.294 8.2353c-1.2995 0-2.3529 1.0534-2.3529 2.3529s1.0534 2.353 2.3529 2.353 2.353-1.0535 2.353-2.353-1.0535-2.3529-2.353-2.3529zm-4.7059 2.3529c0-2.5989 2.107-4.7059 4.7059-4.7059 2.599 0 4.7059 2.107 4.7059 4.7059 0 2.599-2.1069 4.7059-4.7059 4.7059-2.5989 0-4.7059-2.1069-4.7059-4.7059zm7.8907-12.109c0.4595-0.45945 0.4595-1.2044 0-1.6638-0.4594-0.45944-1.2043-0.45944-1.6637 0l-15.294 15.294c-0.45944 0.4594-0.45944 1.2043 0 1.6637 0.45944 0.4595 1.2043 0.4595 1.6638 0l15.294-15.294z" clip-rule="evenodd" fill="#fff" fill-rule="evenodd"/>
</svg>
